<svg width="1158" height="848" viewBox="0 0 1158 848" fill="none" xmlns="http://www.w3.org/2000/svg">
<path d="M991.202 121.448C991.202 121.448 1017.29 107.141 1030.01 77.9135C1042.72 48.6868 1032.11 20.8988 1010.15 8.04013C988.202 -4.82387 973.834 -0.318542 959.602 13.3588C945.375 27.0308 941.083 74.0908 941.083 74.0908L964.408 84.8481C964.408 84.8481 968.616 23.0721 997.367 14.0588C1026.12 5.04679 1062.99 59.1561 991.202 121.448Z" fill="#2E2E33"/>
<path d="M976.169 100.839C976.169 100.839 1023.35 49.3546 994.853 15.0279C994.853 15.0279 993.711 8.07328 1013.11 13.2226C1032.51 18.3706 1043.66 56.0079 1030 77.9133C1016.34 99.8173 991.202 121.448 991.202 121.448L976.169 100.839Z" fill="#171719"/>
<path d="M500.59 256.644C500.59 256.644 465.726 323.953 407.299 374.703C348.864 425.449 319.52 455.573 269.307 492.508C219.087 529.448 95.7311 615.784 68.8324 634.799C41.9257 653.812 27.923 652.724 18.4897 685.285C9.05236 717.849 9.63773 749.253 16.1271 764.409L22.6137 779.563C22.6137 779.563 63.5337 805.632 151.383 801.567C239.243 797.508 364.534 771.857 443.395 757.331C522.255 742.801 576.968 724.297 628.346 688.579C679.715 652.861 770.636 569.936 811.93 555.347C853.223 540.763 879.487 545.511 940.168 490.777C1000.85 436.055 1040.99 411.447 1072.45 399.689C1103.92 387.932 1102.11 357.683 1094.79 338.225C1087.46 318.768 1071.07 247.227 1052.83 209.401C1034.58 171.581 1005.42 141.785 999.06 130.679C992.698 119.568 965.226 79.8627 960.979 78.3227C956.743 76.7801 894.05 65.3187 861.288 80.6081C828.538 95.9001 818.458 117.031 800.683 150.557C782.895 184.084 764.984 204.768 720.994 213.576C676.998 222.381 500.59 256.644 500.59 256.644Z" fill="#FF4658"/>
<path d="M1052.83 209.402C1034.58 171.582 1005.42 141.786 999.06 130.679C992.697 119.569 963.248 79.4005 959.012 77.8605C954.772 76.3192 894.049 65.3192 861.289 80.6085C828.539 95.9005 818.457 117.03 800.684 150.557C782.896 184.083 764.985 204.767 720.993 213.577C676.997 222.381 500.589 256.645 500.589 256.645C500.589 256.645 465.725 323.954 407.299 374.703C348.864 425.449 319.52 455.574 269.307 492.509C219.087 529.447 95.7321 615.785 68.8321 634.799C41.9254 653.813 27.9227 652.723 18.4894 685.286C13.608 702.133 11.4254 718.647 11.3348 732.782C56.6854 726.414 120.817 711.426 195.943 703.287C387.745 682.515 507.82 628.09 623.545 550.657C721.088 485.394 980.013 285.002 1059.01 223.61C1056.98 218.523 1054.91 213.734 1052.83 209.402Z" fill="#E1AE2C"/>
<path d="M687.225 220.247C620.477 233.36 500.589 256.644 500.589 256.644C500.589 256.644 465.725 323.954 407.3 374.703C348.864 425.448 319.521 455.574 269.308 492.508C241.972 512.615 192.989 547.342 149.662 577.899C183.408 608.448 270.604 620.615 351.501 579.959C491.164 509.768 593.973 430.306 650.14 304.534C662.668 276.471 676.078 247.943 687.225 220.247Z" fill="#F9C33B"/>
<path d="M500.59 256.644C500.59 256.644 465.726 323.953 407.299 374.703C348.864 425.449 319.52 455.573 269.307 492.508C264.448 496.083 258.891 500.129 252.82 504.521C267.466 516.849 290.532 525.811 324.58 513.133C379.623 492.641 526.406 359.589 588.887 239.467C541.528 248.692 500.59 256.644 500.59 256.644Z" fill="#FBE76E"/>
<path d="M769.717 302.398C769.717 302.398 776.442 306.009 798.83 298.682C821.226 291.358 847.601 278.226 847.601 278.226C847.601 278.226 922.591 312.187 950.71 328.233C968.195 338.214 1064.58 389.929 1064.58 389.929L1064.42 395.434L769.717 302.398Z" fill="#D3D3D8"/>
<path d="M1006.4 414.187L1006.4 414.182L971.88 407.93L763.876 476.299L726.782 540.399C726.782 540.399 633.314 573.67 656.638 582.116C674.096 588.442 718.678 591.215 739.988 592.207C759.82 573.196 775.962 556.438 787.396 548.034C807.876 532.968 844.948 527.36 870.656 519.888L908.286 516.548C935.436 494.002 982.791 434.696 1006.4 414.187ZM678.342 517.996C682.899 507.655 693.039 501.746 676.282 488.455C658.522 474.378 602.676 475.3 586.5 502.214C570.326 529.124 546.239 566.763 563.906 564.386C581.563 562.003 673.782 528.338 678.342 517.996V517.996ZM723.084 430.088C742.226 432.44 798.084 421.795 846.93 406.234C895.771 390.667 915.568 375.467 904.158 364.124C892.747 352.775 842.723 330.607 833.147 331.914C814.302 334.49 711.776 370.986 706.702 382.738C701.631 394.494 703.936 427.739 723.084 430.088V430.088ZM554.987 428.779C542.943 420.007 528.179 415.682 523.891 427.348C519.614 439.007 553.448 457.455 562.699 453.996C571.954 450.539 567.788 438.095 554.987 428.779ZM503.754 508.239C489.216 498.055 474.866 494.7 468.979 504.292C463.088 513.882 475.594 522.695 491.335 528.947C507.066 535.196 528.131 525.315 503.754 508.239ZM611.734 347.158C603.902 345.134 595.74 349.878 592.015 358.654C588.294 367.432 614.826 380.807 622.798 377.306C630.767 373.804 647.366 356.374 611.734 347.158ZM1064.75 394.491C1064.75 394.491 987.56 461.616 975.04 472.264C962.531 482.91 895.738 551.416 831.755 563.351C767.763 575.288 714.248 615.916 714.248 615.916C714.248 615.916 562.24 617.37 534.179 608.768C506.114 600.168 512.787 581.795 516.254 567.86C519.716 553.924 486.387 546.611 469.339 538.814C452.294 531.016 443.866 518.36 459.339 499.991C474.815 481.618 495.112 496.192 517.906 503.9C540.699 511.604 543.858 505.111 551.374 491.048C558.878 476.978 541.859 473.195 516.619 456.823C491.376 440.45 507.623 428.758 515.552 411.647C523.491 394.534 596.827 436.382 610.246 441.263C623.678 446.14 641.078 435.67 648.846 420.896C656.606 406.124 623.346 396.435 593.468 381.811C563.586 367.192 580.37 349.622 587.822 337.931C595.266 326.243 639.328 341.456 656.983 347.875C674.652 354.292 683.578 349.543 699.988 343.994C716.4 338.447 733.73 323.776 717.932 310.038C702.131 296.298 619.599 296.698 599.492 292.59C579.398 288.483 584.575 270.049 584.575 270.049C681.918 229.115 741.551 262.638 754.142 272.008C766.727 281.384 769.816 299.303 780.608 304.822C791.396 310.344 847.071 282.59 847.071 282.59L889.846 301.335C932.624 320.08 1064.75 394.491 1064.75 394.491" fill="#3C3C58"/>
<path d="M981.942 416.918C978.111 416.734 969.165 417.607 970.427 420.728C971.693 423.856 972.974 429.123 975.881 426.983C978.801 424.843 984.594 417.044 981.942 416.918ZM960.682 431.588C956.405 432.338 955.659 436.067 958.386 437.904C961.115 439.742 969.583 430.024 960.682 431.588V431.588ZM963.093 416.702C958.007 416.638 949.979 421.446 954.059 424.055C958.139 426.667 970.786 416.807 963.093 416.702V416.702ZM945.983 429.3C941.017 430.411 935.234 441.268 943.135 442.272C951.031 443.276 954.405 427.415 945.983 429.3ZM929.035 447.279C924.619 447.459 918.285 460.7 925.011 458.348C931.747 455.996 939.574 446.846 929.035 447.279ZM922.219 441.87C931.45 443.623 937.743 431.455 930.427 430.295C926.017 429.592 913.002 440.119 922.219 441.87ZM911.729 447.262C905.229 447.936 902.158 459.234 908.625 460.72C915.097 462.206 921.701 446.228 911.729 447.262V447.262ZM895.701 463.692C890.045 463.995 881.342 476.604 888.171 476.151C894.997 475.698 905.29 463.179 895.701 463.692ZM888.318 458.878C898.615 462.084 906.851 444.548 893.275 445.214C888.463 445.448 878.017 455.663 888.318 458.878V458.878ZM876.285 464.103C869.015 467.434 860.515 471.698 870.166 474.407C879.822 477.115 885.209 460.004 876.285 464.103ZM857.898 481.676C854.699 482.335 850.142 491.122 857.586 493.83C865.03 496.532 872.887 478.591 857.898 481.676ZM846.157 499.006C839.534 499.266 831.911 507.694 840.822 506.663C849.727 505.631 851.458 498.796 846.157 499.006V499.006ZM840.114 491.746C849.062 492.06 849.59 478.127 840.77 478.919C834.817 479.455 831.165 491.424 840.114 491.746ZM826.807 496.438C818.854 498.142 813.454 509.331 822.231 509.019C831.014 508.696 839.383 493.742 826.807 496.438ZM812.69 514.835C805.709 514.668 799.165 525.912 806.811 524.695C814.449 523.474 822.891 515.078 812.69 514.835ZM808.383 508.431C817.919 506.95 817.726 493.736 807.434 494.264C801.869 494.55 798.845 509.908 808.383 508.431ZM792.231 513.443C789.462 513.638 782.019 526.88 789.769 524.631C797.519 522.386 805.363 512.528 792.231 513.443ZM776.046 531.536C771.867 531.472 765.975 541.58 776.018 541.499C786.066 541.418 784.782 531.668 776.046 531.536ZM765.282 547.996C757.169 545.048 753.901 558.783 761.942 557.18C769.995 555.572 768.815 549.276 765.282 547.996ZM760.467 541.714C767.871 540.136 770.033 527.318 758.031 530.023C753.155 531.127 753.065 543.287 760.467 541.714ZM746.849 546.624C740.659 546.602 732.861 560.471 743.462 560.859C754.065 561.248 757.23 546.667 746.849 546.624ZM744.291 529.88C740.923 529.786 728.697 540.83 738.347 541.406C748.005 541.982 752.093 530.096 744.291 529.88ZM729.918 566.099C724.843 564.223 722.687 569.838 727.098 570.91C731.503 571.975 735.57 568.186 729.918 566.099ZM724.159 559.174C730.349 559.023 739.882 550.394 732.371 549.048C726.942 548.074 717.974 559.327 724.159 559.174ZM752.277 522.895C761.641 521.34 764.117 502.783 755.81 508.028C751.697 510.627 742.914 524.446 752.277 522.895ZM767.343 504.398C775.141 502.52 777.103 487.591 768.665 489.547C763.315 490.783 759.547 506.276 767.343 504.398ZM779.297 489.631C788.622 490.36 793.311 475.268 782.717 477.282C775.711 478.611 769.962 488.907 779.297 489.631ZM773.646 512.51C769.109 512.598 761.575 523.72 772.174 524.636C782.765 525.556 783.047 512.326 773.646 512.51ZM785.165 492.138C780.585 493.531 777.718 503.504 785.906 504.456C794.09 505.407 798.185 488.179 785.165 492.138ZM802.462 488.216C811.383 487.167 814.137 472.975 804.741 474.622C797.685 475.864 793.553 489.268 802.462 488.216ZM818.934 471.516C824.977 471.047 826.703 464.084 819.641 465.178C814.033 466.048 812.901 471.987 818.934 471.516ZM821.218 476.079C815.118 481.124 808.471 495.174 824.505 491.403C840.539 487.634 827.218 471.112 821.218 476.079ZM835.835 471.602C845.755 473.266 851.279 457.335 838.363 458.411C831.897 458.948 825.906 469.938 835.835 471.602ZM857.058 474.44C867.789 473.547 865.633 455.162 855.963 460.18C851.327 462.582 846.341 475.338 857.058 474.44ZM868.283 456.775C875.963 458.383 883.757 445.01 875.493 448.676C871.11 450.624 860.601 455.163 868.283 456.775ZM907.573 441.082C913.723 439.58 918.889 436.359 908.993 437.179C904.762 437.528 901.437 442.582 907.573 441.082ZM1006.4 414.187C982.791 434.696 935.437 494.002 908.285 516.548L870.657 519.89C844.949 527.36 807.877 532.968 787.395 548.034C775.962 556.439 759.821 573.196 739.989 592.207C718.678 591.216 674.097 588.443 656.638 582.116C633.313 573.67 726.782 540.399 726.782 540.399L763.877 476.299L971.881 407.93L1006.4 414.182L1006.4 414.187Z" fill="#5A4439"/>
<g opacity="0.699997">
<g opacity="0.699997">
<path opacity="0.699997" d="M646.416 424.884V424.881C662.611 414.306 638.601 394.781 631.765 390.141C624.921 385.5 635.181 380.737 626.017 379.541C624.728 379.377 622.987 378.734 620.959 377.782C611.529 379.024 589.105 367.138 591.92 358.953C587.869 355.968 585.161 353.881 585.161 353.881C583.769 352.065 581.652 351.43 579.139 351.65C574.349 361.305 573.821 372.198 593.469 381.81C623.347 396.434 656.607 406.125 648.845 420.897C648.12 422.269 647.289 423.596 646.416 424.884Z" fill="#5A4439"/>
</g>
</g>
<g opacity="0.699997">
<g opacity="0.699997">
<path opacity="0.699997" d="M537.854 453.411C521.085 442.32 513.575 427.77 513.575 427.77C513.575 427.77 511.542 426.206 508.551 424.088C501.977 435.16 497.947 444.714 516.618 456.823C541.859 473.195 558.878 476.978 551.374 491.048C566.221 486.848 554.619 464.503 537.854 453.411Z" fill="#5A4439"/>
</g>
</g>
<path d="M525.051 561.996C521.876 544.314 497.475 543.977 481.288 538.628C471.263 535.309 459.125 524.045 451.343 515.952C450.196 525.986 457.767 533.524 469.339 538.813C486.387 546.612 519.716 553.924 516.253 567.86C512.787 581.796 506.113 600.169 534.18 608.768C562.241 617.369 714.248 615.916 714.248 615.916C714.248 615.916 553.145 607.928 531.599 602.236C510.051 596.534 528.221 579.676 525.051 561.996Z" fill="#5A4439"/>
<path d="M492.583 253.734C479.801 256.101 466.141 259.195 474.481 272.746C482.817 286.301 502.353 297.277 520.599 314.573C538.835 331.862 561.189 351.061 570.633 355.886C580.077 360.711 579.766 358.854 581.435 347.537C583.114 336.219 573.473 328.986 552.75 315.591C532.023 302.193 489.651 275.745 493.027 269.985C496.401 264.221 501.349 252.111 492.583 253.734Z" fill="#FF4658"/>
<path d="M493.027 269.984C496.401 264.221 501.349 252.112 492.583 253.733C490.362 254.147 488.118 254.584 485.961 255.089C480.427 259.961 478.579 267.981 488.055 278.119C503.226 294.353 548.302 321.971 560.085 332.08C566.463 337.552 569.603 333.399 571.166 328.44C566.542 324.651 560.411 320.545 552.75 315.591C532.023 302.192 489.651 275.744 493.027 269.984Z" fill="#FF4658"/>
<path d="M389.634 385.88C381.454 380.36 402.275 356.969 418.257 346.737C434.237 336.504 472.738 337.697 505.745 342.23C538.759 346.761 596.298 346.881 608.415 350.218C620.534 353.554 632.002 357.192 628.157 364.857C624.303 372.521 618.445 373.556 599.558 373.126C580.657 372.692 517.566 362.522 483.739 358.76C449.914 354.998 434.329 353.886 425.059 358.105C415.789 362.325 396.485 390.501 389.634 385.88Z" fill="#FF4658"/>
<path d="M608.415 350.218C596.298 346.881 538.759 346.761 505.745 342.23C472.738 337.697 434.237 336.504 418.257 346.737C406.541 354.238 392.271 368.788 388.685 378.206C397.091 368.609 415.389 350.102 432.706 348.616C456.165 346.608 525.458 349.393 559.338 355.309C584.662 359.73 611.181 365.31 625.227 368.957C626.37 367.862 627.314 366.524 628.157 364.857C632.002 357.192 620.534 353.554 608.415 350.218Z" fill="#FF4658"/>
<path d="M549.354 494.781C549.999 493.597 550.659 492.366 551.374 491.048C552.731 488.485 553.27 486.273 553.109 484.256C552.505 482.665 551.826 481.016 551.075 479.336C546.246 472.936 533.245 467.606 516.618 456.822C498.333 444.965 501.821 435.561 508.142 424.78C505.806 419.816 503.919 414.933 499.014 408.432C487.291 392.902 414.71 360.906 414.71 360.906C414.71 360.906 403.889 368.664 417.059 374.25C430.223 379.836 481.611 396.909 477.373 404.169C473.131 411.426 424.422 419.214 424.422 419.214C424.422 419.214 446.611 427.173 466.362 434.456C486.113 441.737 535.703 465.934 543.051 483.113C545.174 488.081 547.339 491.865 549.354 494.781Z" fill="#E1AE2C"/>
<path d="M454.2 325.61C440.36 321.137 403.128 327.953 402.204 340.905C401.276 353.852 410.784 359.973 425.427 369.56C440.074 379.149 469.234 388.413 483.702 402.873C498.183 417.333 501.863 427.733 513.979 425.204C526.099 422.676 519.584 405.38 504.343 394.508C489.094 383.636 442.546 368.717 434.886 355.749C427.214 342.772 442.186 339.841 442.186 339.841L454.2 325.61Z" fill="#FF4658"/>
<path d="M504.344 394.507C489.093 383.635 442.545 368.717 434.885 355.749C427.213 342.771 442.186 339.841 442.186 339.841L451.164 329.214C437.521 330.386 415.889 333.413 413.993 340.877C411.205 351.847 437.017 367.907 455.492 376.755C473.984 385.607 498.258 396.566 507.121 408.853C511.442 414.835 513.948 420.627 515.688 424.67C525.364 420.87 518.792 404.813 504.344 394.507Z" fill="#FF4658"/>
<path d="M966.488 77.249C966.488 77.249 940.993 79.1797 928.601 106.672C916.213 134.16 906.144 199.285 891.375 209.114C876.605 218.94 836.212 235.452 788.037 213.946C739.872 192.442 724.844 194.178 726.376 154.746C727.913 115.313 713.008 94.6997 693.031 85.841C673.06 76.9824 623.347 50.9184 598.751 72.3717C574.156 93.825 500.59 256.644 500.59 256.644C500.59 256.644 676.691 260.658 741.551 262.638C806.42 264.617 934.088 274.225 948.413 241.438C962.72 208.65 987.423 109.91 987.423 109.91L966.488 77.249Z" fill="#5A4439"/>
<path d="M491.335 528.947C498.844 531.931 507.56 531.229 511.972 527.83C509.169 523.143 505.272 518.191 499.939 513.102C495.183 508.558 488.409 503.655 480.391 498.63C475.489 498.514 471.471 500.23 468.979 504.293C463.088 513.882 475.593 522.695 491.335 528.947Z" fill="#E1AE2C"/>
<path d="M469.338 538.813C452.294 531.016 443.866 518.36 459.338 499.991C462.636 496.072 466.164 493.668 469.87 492.359C429.161 469.18 368.105 445.237 353.265 441.952C333.806 437.649 316.622 448.123 316.622 448.123C316.622 448.123 350.822 446.343 371.742 457.053C392.672 467.759 426.492 481.983 438.918 498.967C451.342 515.952 442.584 530.689 457.352 538.457C472.125 546.225 516.005 563.215 516.024 563.22C512.098 552.203 484.385 545.697 469.338 538.813Z" fill="#E1AE2C"/>
<path d="M92.9882 799.691L302.034 764.18C302.034 764.18 297.676 755.562 295.038 729.808C292.396 704.052 332.976 636.419 333.034 625.246C333.099 614.07 311.138 608.49 257.444 624.17C203.763 639.847 133.827 658.419 94.1336 657.592C72.8589 657.15 64.3202 648.23 60.9762 640.052C39.1189 653.938 26.9576 656.058 18.4896 685.286C12.1096 707.295 10.3242 728.759 11.8296 745.05C38.3829 772.062 92.9616 799.679 92.9882 799.691Z" fill="#3C3C58"/>
<g opacity="0.5">
<g opacity="0.5">
<path opacity="0.5" d="M257.444 624.17C203.763 639.848 133.827 658.42 94.1346 657.592C72.8599 657.149 64.32 648.23 60.976 640.052C45.5853 649.826 35.024 653.805 27.1506 665.477C33.444 681.796 49.4853 697.093 86.62 700.164C149.219 705.325 244.405 695.252 307.491 684.534C318.585 658.594 332.996 631.904 333.033 625.246C333.099 614.07 311.139 608.489 257.444 624.17Z" fill="#5A4439"/>
</g>
</g>
<path d="M296.532 741.681C257.094 741.493 204.664 742.682 151.619 748.137C94.6004 754.005 46.0431 732.085 13.0844 710.306C11.2391 723.117 10.9044 735.059 11.8298 745.049C38.3831 772.062 92.9617 799.679 92.9884 799.691L302.034 764.181C302.034 764.181 299.058 758.263 296.532 741.681Z" fill="#5A4439"/>
<path d="M292.5 758.445C290.963 752.631 289.171 743.671 287.825 730.546C285.961 712.377 301.437 679.487 313.879 653.055C319.044 642.065 325.481 628.387 325.795 625.078C325.795 624.662 323.675 622.843 317.161 622.078C308.491 621.055 291.44 621.795 259.476 631.129C208.493 646.017 135.869 665.713 93.9812 664.842C91.4772 664.787 89.0386 664.625 86.7372 664.355C71.8719 662.601 54.5719 655.29 52.9012 644.974" stroke="#FF4658" stroke-width="1.33333" stroke-miterlimit="10" stroke-linecap="round" stroke-dasharray="2.67 2.67"/>
<path d="M81.8592 802.744C81.8592 802.744 159.011 784.656 206.206 774.846C253.395 765.035 393.465 744.947 474.674 727.084C535.378 713.727 653.578 659.796 691.145 626.867C733.942 589.363 771.693 544.019 795.618 533.939C819.543 523.86 870.021 513.892 884.285 507.742C898.545 501.584 988.81 422.792 1003.64 406.83C1018.45 390.868 1051.05 377.93 1069.94 375.19C1085.9 372.878 1094.18 362.711 1087.27 343.846C1080.35 324.98 1080.92 323.832 1086.25 319.05C1095.01 311.198 1107.74 345.743 1107.69 346.62C1106.09 370.692 1104.02 416.863 1099.42 420.727C1094.82 424.59 822.793 599.115 811.674 609.758C800.555 620.395 575.369 747.295 568.831 748.483C562.302 749.674 235.079 814.098 235.079 814.098L81.8592 802.744Z" fill="#D3D3D8"/>
<path d="M1086.76 327.313C1086.76 327.313 1108.22 369.5 1083.94 379.072C1059.68 388.645 1047.27 380.943 1023.71 399.571C1000.14 418.2 910.884 500.933 888.921 512.948C866.964 524.959 813.594 528.76 787.396 548.033C761.193 567.301 710.281 630.376 646.837 664.107C583.392 697.836 524.637 734.067 345.388 758.505C166.152 782.945 87.4823 781.544 96.4116 794.388C105.337 807.227 203.862 822.24 245.084 827.628C286.32 833.012 343.925 830.752 413.926 818.604C483.926 806.455 503.518 811.973 503.518 811.973C503.518 811.973 510.522 816.916 522.008 805.097C533.509 793.283 537.038 794.561 543.334 799.251C549.632 803.935 573.77 790.319 631.822 771.424C689.88 752.535 734.318 727.092 745.037 708.596C755.764 690.097 752.29 668.841 766.868 657.341C781.438 645.844 841.288 622.005 841.288 622.005L879.502 633.496C879.502 633.496 981.744 607.463 1048.02 574.765C1114.28 542.064 1165.66 515.144 1156.21 468.52C1146.76 421.9 1129.16 395.508 1129.16 395.508C1129.16 395.508 1101.97 300.847 1086.76 327.313" fill="#B6BECB"/>
<path d="M1154.08 496.807V496.747C1142.28 527.287 1099.69 549.272 1048.02 574.766C981.744 607.463 879.501 633.496 879.501 633.496L878.091 633.07C882.101 640.283 889.157 648.492 900.077 646.568C918.875 643.268 1059.24 601.834 1104.63 566.444C1150.02 531.055 1153.57 514.75 1154.08 496.807Z" fill="#FF4658"/>
<path d="M766.013 204.576C774.574 203.067 783.461 198.411 790.873 187.784C813.141 155.887 836.648 98.6751 862.336 89.6151C888.025 80.5578 933.541 82.0724 933.541 82.0724C933.541 82.0724 911.002 89.0764 902.341 137.118C893.681 185.158 885.525 214.19 836.789 214.068C788.076 213.95 772.268 207.168 772.245 207.158C777.062 209.167 782.31 211.39 788.037 213.947C836.213 235.451 876.605 218.939 891.374 209.115C906.144 199.284 916.214 134.159 928.601 106.671C940.993 79.1804 966.488 77.2484 966.488 77.2484C962.253 75.7098 894.049 65.3191 861.289 80.6084C828.538 95.9004 818.457 117.03 800.684 150.556C788.797 172.963 776.801 189.598 757.056 200.82C759.82 202.007 762.806 203.247 766.013 204.576Z" fill="#2E2E33"/>
<path d="M567.539 106.617C567.539 106.617 651.743 109.225 669.215 131.572C686.687 153.919 672.374 191.104 655.096 205.621C637.827 220.143 621.45 236.584 607.972 251.677C594.483 266.775 586.714 272.747 561.476 273.973C536.235 275.196 496.4 264.221 496.4 264.221C496.4 264.221 543.656 145.924 567.539 106.617Z" fill="#3C3C58"/>
<g opacity="0.5">
<g opacity="0.5">
<path opacity="0.5" d="M555.019 129.844C530.15 179.741 496.401 264.221 496.401 264.221C496.401 264.221 520.161 270.767 542.613 273.181C573.289 243.288 626.751 189.284 637.446 166.125C648.445 142.3 588.726 133.101 555.019 129.844Z" fill="#5A4439"/>
</g>
</g>
<path d="M570.609 305.283C599.435 303.765 684.625 305.767 699.447 318.434C708.031 325.77 707.875 334.982 706.224 341.451C720.272 334.727 731.716 322.031 717.933 310.037C702.131 296.298 619.6 296.698 599.492 292.589C593.709 291.409 590.063 289.022 587.743 286.246C585.52 286.235 583.661 286.262 582.34 286.354C563.724 287.587 519.989 286.889 519.989 286.889C519.989 286.889 541.783 306.807 570.609 305.283Z" fill="#E1AE2C"/>
<path d="M631.823 771.424C573.769 790.319 549.631 803.935 543.335 799.251C538.613 795.729 535.439 794.132 529.293 798.545C537.335 805.115 551.631 814.724 566.932 815.023C590.223 815.489 687.865 773.484 708.683 755.811C719.287 746.815 726.809 733.713 731.649 723.012C712.055 738.992 675.869 757.089 631.823 771.424Z" fill="#2E2D31"/>
<path d="M745.036 708.596C753.159 694.588 753.155 679.007 758.995 667.269C742.824 672.949 710.027 683.38 686.011 683.943C652.935 684.723 644.912 700.201 631.303 711.247C617.69 722.299 561.378 773.813 499.914 786.668C438.459 799.523 398.39 815.148 323.496 803.333C248.612 791.52 212.564 774.429 212.564 774.429H212.555C127.375 783.347 90.1203 785.343 96.411 794.388C105.338 807.227 203.862 822.24 245.083 827.628C286.32 833.013 343.924 830.752 413.927 818.604C483.927 806.456 503.518 811.973 503.518 811.973C503.518 811.973 510.522 816.916 522.008 805.097C533.508 793.283 537.039 794.561 543.335 799.251C549.631 803.935 573.77 790.319 631.823 771.424C689.88 752.535 734.319 727.092 745.036 708.596Z" fill="#BEC2D3"/>
<path d="M330.78 434.868C326.171 435.401 345.033 411.789 364.941 408.36C384.847 404.929 418.536 395.851 460.971 403.807C503.405 411.763 537.443 419.336 545.145 427.468C552.86 435.603 556.015 450.393 545.745 447.836C535.472 445.279 503.264 431.971 482.631 428.207C462.003 424.441 425.649 420.296 405.659 421.029C385.665 421.756 335.232 434.353 330.78 434.868Z" fill="#FF4658"/>
<path d="M545.146 427.468C537.443 419.335 503.404 411.763 460.97 403.807C418.536 395.851 384.846 404.93 364.942 408.36C351.848 410.615 339.218 421.59 333.406 428.696C339.595 427.826 347.58 425.106 354.743 421.359C369.576 413.607 379.582 412.086 403.384 411.14C427.191 410.195 473.046 414.59 500.451 421.064C521.335 425.998 539.306 431.65 551.495 438.396C550.378 434.679 548.099 430.586 545.146 427.468Z" fill="#FF4658"/>
<path d="M361.124 390.981C353.666 391.929 347.77 398.391 358.558 403.909C369.35 409.427 386.328 418.568 401.422 437.084C416.518 455.597 435.569 473.713 447.074 477.251C458.589 480.787 458.414 469.528 443.47 453.432C428.521 437.336 380.69 388.493 361.124 390.981Z" fill="#FF4658"/>
<path d="M443.47 453.432C428.521 437.336 380.69 388.493 361.123 390.981C357.275 391.469 353.865 393.432 352.921 395.967C361.591 399.779 377.214 405.937 395.247 418.847C421.227 437.435 437.102 460.849 451.877 477.791C458.073 476.804 455.882 466.801 443.47 453.432Z" fill="#FF4658"/>
<path d="M904.157 364.125C892.747 352.775 842.723 330.607 833.147 331.914C814.301 334.489 711.776 370.986 706.701 382.738C705.224 386.166 704.38 391.429 704.393 397.21C717.673 390.039 744.824 375.777 765.216 367.701C793.244 356.609 811.353 343.459 833.151 346.582C854.944 349.706 878.873 355.734 886.455 362.754C894.035 369.775 882.237 380.247 876.983 382.955C873.308 384.854 853.269 399.371 841.595 407.903C843.383 407.35 845.16 406.797 846.931 406.234C895.771 390.667 915.568 375.467 904.157 364.125Z" fill="#E1AE2C"/>
<path d="M457.177 356.105C457.177 356.105 482.089 358.794 528.89 374.953C575.689 391.11 644.04 409.197 647.649 410.588C651.257 411.98 618.35 389.444 588.84 372.373C559.338 355.309 457.177 356.105 457.177 356.105Z" fill="#E1AE2C"/>
<path d="M299.996 447.679C307.103 440.862 329.18 426.034 345.46 429.675C361.729 433.323 487.443 479.146 496.757 501.926C506.079 524.706 493.656 526.593 488.48 524.71C483.297 522.826 464.813 494.463 447.036 487.627C429.252 480.791 363.271 446.679 352.524 445.441C341.775 444.202 317.745 453.117 307.392 455.193C297.043 457.269 293.463 453.939 299.996 447.679Z" fill="#FF4658"/>
<path d="M499.939 513.102C499.571 510.094 498.603 506.43 496.757 501.925C487.443 479.145 361.729 433.324 345.46 429.676C329.18 426.033 307.103 440.861 299.996 447.68C297.164 450.39 296.24 452.55 296.933 453.96C303.976 448.902 312.703 442.47 319.399 441.237C334.459 438.474 336.803 433.646 357.927 439.406C379.039 445.166 397.577 456.48 431.527 471.625C465.48 486.772 474.909 491.241 487.067 502.178C494.971 509.278 498.092 512.45 499.939 513.102Z" fill="#FF4658"/>
<g opacity="0.5">
<g opacity="0.5">
<path opacity="0.5" d="M248.367 812.822C214.783 807.11 174.315 793.382 130.963 782.956C103.974 786.216 92.7324 789.097 96.4111 794.388C105.338 807.226 203.862 822.24 245.083 827.628C277.543 831.866 320.166 831.345 370.951 825.017C325.4 823.108 279.16 818.062 248.367 812.822Z" fill="#CBD3E4"/>
</g>
<g opacity="0.5">
<path opacity="0.5" d="M621.256 755.751C605.378 770.708 576.462 786.704 543.886 799.582C550.952 803.199 575.33 789.81 631.822 771.424C689.88 752.535 734.318 727.092 745.036 708.596C748.136 703.246 750.046 697.668 751.556 692.166C729.768 698.888 696.036 708.532 680.394 709.07C656.272 709.899 653.974 724.94 621.256 755.751Z" fill="#CBD3E4"/>
</g>
<g opacity="0.5">
<path opacity="0.5" d="M517.588 809.016C513.556 810.323 509.5 811.566 505.443 812.744C507.711 813.296 511.906 813.279 517.588 809.016Z" fill="#CBD3E4"/>
</g>
</g>
<path d="M463.187 314.134C455.097 324.584 459.777 286.246 476.07 278.66C492.373 271.08 500.007 267.488 525.475 270.687C550.938 273.879 616.439 268.354 641.171 266.146C665.894 263.935 683.753 260.296 690.437 265.387C697.115 270.482 701.399 276.302 689.71 280.584C678.021 284.871 608.062 292.04 576.482 293.328C544.905 294.614 507.358 293.763 490.237 293.939C473.106 294.114 468.815 306.851 463.187 314.134Z" fill="#FF4658"/>
<path d="M690.437 265.388C683.752 260.297 665.893 263.934 641.172 266.145C616.44 268.354 550.939 273.878 525.475 270.688C500.008 267.488 492.372 271.081 476.071 278.66C471.268 280.9 467.484 285.82 464.724 291.362C472.731 284.286 483.279 277.026 493.396 276.425C513.561 275.225 559.556 282.872 580.853 282.616C602.152 282.358 643.808 277.768 665.299 274.382C679.087 272.21 689.181 270.294 694.677 269.192C693.527 267.904 692.049 266.622 690.437 265.388Z" fill="#FF4658"/>
<path d="M4.1365 724.058L38.2779 736.472C38.2779 736.472 75.0285 795.72 119.634 805.301C164.247 814.878 270.976 829.033 294.156 824.664C317.339 820.292 333.775 828.757 333.775 828.757C333.775 828.757 493.367 800.285 498.442 806.129C503.518 811.974 489.97 829.444 489.97 829.444L364.03 843.656L336.731 832.94L321.132 847.26C321.132 847.26 181.664 843.764 120.831 832.86C59.9978 821.942 26.1498 798.444 26.1498 798.444C26.1498 798.444 2.69385 777.925 0.0231824 735.365L4.1365 724.058Z" fill="#2E2D31"/>
<path d="M33.5286 742.209C33.5286 742.209 64.0526 788.795 103.487 803.509C114.931 807.779 134.463 810.42 156.427 812.023C142.197 809.721 129.422 807.401 119.634 805.3C75.0286 795.72 38.2793 736.471 38.2793 736.471L4.13659 724.059L1.74059 730.652L33.5286 742.209Z" fill="#6B6169"/>
<path d="M308.784 800.858C340.93 794.767 447.017 774.515 471.349 768.023C493.784 762.039 560.202 749.988 588.36 744.971C603.373 734.482 615.601 724.41 623.677 717.628C620.941 718.862 617.978 720.196 614.717 721.663C575.83 739.166 477.686 755.398 441.898 765.851C411.27 774.798 310.472 791.024 282.009 795.523C290.198 797.332 299.109 799.132 308.784 800.858Z" fill="#878E9D"/>
<path d="M354.775 806.873C355.347 806.752 440.385 789.257 461.04 785.072C474.973 782.249 517.901 775.26 544.532 770.979C553.351 766.729 561.812 762.017 569.779 757.148C548.533 760.105 498.82 767.392 468.947 774.616C437.512 782.227 359.676 798.584 331.42 804.496C339.599 805.608 347.355 806.388 354.775 806.873Z" fill="#878E9D"/>
<path d="M565.09 115.856C565.09 115.856 565.552 115.886 566.414 115.95" stroke="#5A4439" stroke-width="1.33333" stroke-miterlimit="10" stroke-linecap="round"/>
<path d="M569.062 116.149C585.506 117.418 647.87 122.801 658.337 132.15C670.413 142.938 672.394 169.786 654.926 188.497C637.458 207.211 626.034 221.857 613.214 234.722C600.389 247.591 590.586 264.294 582.326 265.023C574.061 265.75 559.302 267.186 537.825 263.711C522.505 261.234 513.145 258.103 509.034 256.511" stroke="#5A4439" stroke-width="1.33333" stroke-miterlimit="10" stroke-linecap="round" stroke-dasharray="2.66 2.66"/>
<path d="M507.795 256.015C506.979 255.675 506.579 255.481 506.579 255.481" stroke="#5A4439" stroke-width="1.33333" stroke-miterlimit="10" stroke-linecap="round"/>
<path d="M707.295 681.528C742.381 653.299 813.707 598.867 813.707 598.867C792.481 621.331 748.183 659.762 728.338 676.76C732.979 675.523 737.465 674.231 741.663 672.948C798.061 627.196 879.034 542.15 879.034 542.15C879.034 542.15 854.351 556.959 797.679 605.574C759.442 638.362 714.879 667.952 689.885 683.763C695.417 683.414 701.309 682.614 707.295 681.528Z" fill="#878E9D"/>
<g opacity="0.5">
<g opacity="0.5">
<path opacity="0.5" d="M731.707 722.968C711.895 723.648 684.983 725.063 673.544 727.915C657.266 731.967 663.65 748.115 647.836 765.93C684.634 752.62 714.546 736.976 731.707 722.968Z" fill="#CBD3E4"/>
</g>
</g>
<g opacity="0.5">
<g opacity="0.5">
<path opacity="0.5" d="M555.019 129.844C530.15 179.741 496.401 264.221 496.401 264.221C496.401 264.221 502.999 266.032 512.494 268.1C547.113 227.835 573.911 163.312 585.075 133.779C574.43 131.959 563.835 130.696 555.019 129.844Z" fill="#5A4439"/>
</g>
</g>
<path d="M949.036 517.237C971.914 492.65 1051.62 433.557 1081.77 461.825C1111.92 490.09 1044.9 517.237 998.806 539.274C952.715 561.31 921.511 546.815 949.036 517.237Z" fill="#878E9D"/>
<path d="M1083.07 463.173L938.932 539.014C937.903 533.45 940.866 526.019 949.036 517.237C971.914 492.649 1051.62 433.557 1081.77 461.825C1082.25 462.271 1082.63 462.721 1083.07 463.173Z" fill="#878E9D"/>
</svg>
